HIERARCHY
ROOT joint_Root
{
	OFFSET 0.0 0.0 0.0
	CHANNELS 6 Xposition Yposition Zposition Zrotation Xrotation Yrotation 
	JOINT Hips
	{
		OFFSET -17.1583 93.1646 452.98
		CHANNELS 6 Xposition Yposition Zposition Zrotation Xrotation Yrotation 
		JOINT Spine
		{
			OFFSET 15.7357 0.0 0.0
			CHANNELS 6 Xposition Yposition Zposition Zrotation Xrotation Yrotation 
			JOINT Chest
			{
				OFFSET 8.98455 -0.406207 0.0
				CHANNELS 6 Xposition Yposition Zposition Zrotation Xrotation Yrotation 
				JOINT Neck
				{
					OFFSET 16.3773 0.0 0.0
					CHANNELS 6 Xposition Yposition Zposition Zrotation Xrotation Yrotation 
					JOINT Head
					{
						OFFSET 6.45672 0.0 0.0
						CHANNELS 6 Xposition Yposition Zposition Zrotation Xrotation Yrotation 
						End Site
						{
							OFFSET 0.0 0.0 0.0
						}
					}
				}
				JOINT Shoulder_L
				{
					OFFSET 12.9942 -0.242716 4.98039
					CHANNELS 6 Xposition Yposition Zposition Zrotation Xrotation Yrotation 
					JOINT UpperArm_L
					{
						OFFSET 5.34809 0.0 0.0
						CHANNELS 6 Xposition Yposition Zposition Zrotation Xrotation Yrotation 
						JOINT LowerArm_L
						{
							OFFSET 24.3286 1.87007e-05 0.0
							CHANNELS 6 Xposition Yposition Zposition Zrotation Xrotation Yrotation 
							JOINT Hand_L
							{
								OFFSET 22.2916 0.0 0.0
								CHANNELS 6 Xposition Yposition Zposition Zrotation Xrotation Yrotation 
								End Site
								{
									OFFSET 0.0 0.0 0.0
								}
							}
						}
					}
				}
				JOINT Shoulder_R
				{
					OFFSET 12.9945 -0.242716 -4.98039
					CHANNELS 6 Xposition Yposition Zposition Zrotation Xrotation Yrotation 
					JOINT UpperArm_R
					{
						OFFSET -5.34813 0.0 0.0
						CHANNELS 6 Xposition Yposition Zposition Zrotation Xrotation Yrotation 
						JOINT LowerArm_R
						{
							OFFSET -24.3289 0.000322201 0.0
							CHANNELS 6 Xposition Yposition Zposition Zrotation Xrotation Yrotation 
							JOINT Hand_R
							{
								OFFSET -22.2915 -0.000108084 0.0
								CHANNELS 6 Xposition Yposition Zposition Zrotation Xrotation Yrotation 
								End Site
								{
									OFFSET 0.0 0.0 0.0
								}
							}
						}
					}
				}
			}
		}
		JOINT UpperLeg_L
		{
			OFFSET -2.19248 -6.46944 0.0
			CHANNELS 6 Xposition Yposition Zposition Zrotation Xrotation Yrotation 
			JOINT LowerLeg_L
			{
				OFFSET 39.0811 0.0 -1.23785e-05
				CHANNELS 6 Xposition Yposition Zposition Zrotation Xrotation Yrotation 
				JOINT Foot_L
				{
					OFFSET 40.9854 0.0 -1.26872e-05
					CHANNELS 6 Xposition Yposition Zposition Zrotation Xrotation Yrotation 
					JOINT Toes_L
					{
						OFFSET 11.7543 0.0 0.0
						CHANNELS 6 Xposition Yposition Zposition Zrotation Xrotation Yrotation 
						End Site
						{
							OFFSET 0.0 0.0 0.0
						}
					}
				}
			}
		}
		JOINT UpperLeg_R
		{
			OFFSET -2.19251 6.46944 0.0
			CHANNELS 6 Xposition Yposition Zposition Zrotation Xrotation Yrotation 
			JOINT LowerLeg_R
			{
				OFFSET -39.0811 -0.00228153 -0.0401928
				CHANNELS 6 Xposition Yposition Zposition Zrotation Xrotation Yrotation 
				JOINT Foot_R
				{
					OFFSET -40.9854 0.0 0.0
					CHANNELS 6 Xposition Yposition Zposition Zrotation Xrotation Yrotation 
					JOINT Toes_R
					{
						OFFSET -11.7543 0.0 0.0
						CHANNELS 6 Xposition Yposition Zposition Zrotation Xrotation Yrotation 
						End Site
						{
							OFFSET 0.0 0.0 0.0
						}
					}
				}
			}
		}
	}
}
MOTION
Frames:	4
Frame Time:	0.0333333
0.000000 0.000000 0.000000 0.000000 0.000000 -0.000000 -0.324436 93.013600 1.317310 88.893000 1.351630 0.506014 15.735700 0.000005 -0.000001 122.089000 87.663200 -121.939000 8.984550 -0.406207 -0.000000 -3.811450 2.466090 0.381612 16.377300 -0.000001 -0.000001 1.232760 1.200260 -3.619470 6.456720 -0.000001 -0.000000 3.849000 -1.689710 0.072008 12.994200 -0.242716 4.980390 -93.302600 9.888640 -71.426900 5.348090 -0.000007 -0.000001 -67.738000 21.806400 -2.523980 24.328600 0.000019 0.000005 9.386560 29.115300 -18.765100 22.291600 -0.000001 0.000005 -9.246300 5.134460 4.297900 12.994500 -0.242716 -4.980390 88.145800 6.679730 -74.447500 -5.348130 -0.000001 -0.000004 -71.664500 29.369700 -2.539850 -24.328900 0.000322 -0.000009 1.536940 5.341360 -16.089100 -22.291500 -0.000108 -0.000004 2.232910 5.283140 0.540081 -2.192480 -6.469440 -0.000000 -174.219000 -4.511780 0.299117 39.081100 -0.000007 -0.000012 0.024584 -0.099357 13.897900 40.985400 -0.000006 -0.000013 -0.907153 13.017400 -69.026600 11.754300 -0.000000 0.000003 -0.000455 0.174965 -9.479900 -2.192510 6.469440 -0.000001 175.961000 6.562220 -177.524000 -39.081100 -0.002282 -0.040193 0.006100 -0.013964 11.191100 -40.985400 0.000008 0.000006 -8.344720 4.958930 -67.865900 -11.754300 -0.000006 -0.000006 -0.010402 0.274283 -5.429150
0.000000 0.000000 0.000000 0.000000 0.000000 -0.000000 -0.293753 93.006300 1.441790 88.977700 1.283950 0.265736 15.735700 0.000005 -0.000001 123.911000 87.667900 -123.591000 8.984550 -0.406207 -0.000000 -3.904270 2.567910 0.728284 16.377300 -0.000001 -0.000001 0.568415 0.931395 -2.785760 6.456720 -0.000001 -0.000000 3.564060 -1.774270 0.703203 12.994200 -0.242716 4.980390 -93.396500 10.135300 -71.362400 5.348090 -0.000007 -0.000001 -66.279400 20.549700 -3.892610 24.328600 0.000019 0.000005 9.856040 31.916200 -18.192400 22.291600 -0.000001 0.000005 -12.477500 5.225330 2.046530 12.994500 -0.242716 -4.980390 88.197800 6.579220 -74.643900 -5.348130 -0.000001 -0.000004 -71.621300 28.978100 -2.343990 -24.328900 0.000322 -0.000009 1.506570 5.207920 -16.169600 -22.291500 -0.000108 -0.000004 2.172310 5.284080 0.514407 -2.192480 -6.469440 -0.000000 -174.322000 -4.697270 0.246627 39.081100 -0.000007 -0.000012 0.025182 -0.103166 13.717600 40.985400 -0.000006 -0.000013 -0.883593 13.107900 -69.011200 11.754300 -0.000000 0.000003 -0.000393 0.173995 -9.519300 -2.192510 6.469440 -0.000001 175.844000 6.734870 -177.690000 -39.081100 -0.002282 -0.040193 0.006685 -0.016913 11.199100 -40.985400 0.000008 0.000006 -8.381000 5.174510 -67.890900 -11.754300 -0.000006 -0.000006 -0.010237 0.273067 -5.478930
0.000000 0.000000 0.000000 0.000000 0.000000 -0.000000 -0.271218 93.032600 1.535910 89.111500 1.391770 -0.055008 15.735700 0.000005 -0.000001 124.957000 87.740100 -124.415000 8.984550 -0.406207 -0.000000 -4.075420 2.531940 1.174520 16.377300 -0.000001 -0.000001 -0.165734 0.653525 -2.013190 6.456720 -0.000001 -0.000000 3.296570 -1.963780 1.532490 12.994200 -0.242716 4.980390 -93.400200 10.140300 -71.352000 5.348090 -0.000007 -0.000001 -64.039200 19.122200 -5.841150 24.328600 0.000019 0.000005 10.124100 34.718900 -17.407300 22.291600 -0.000001 0.000005 -16.729700 5.299660 0.053422 12.994500 -0.242716 -4.980390 88.237900 6.476650 -74.744800 -5.348130 -0.000001 -0.000004 -71.445000 28.449300 -2.291620 -24.328900 0.000322 -0.000009 1.548410 5.392890 -16.056300 -22.291500 -0.000108 -0.000004 2.307080 5.282920 0.546321 -2.192480 -6.469440 -0.000000 -174.464000 -4.871140 0.264376 39.081100 -0.000007 -0.000012 0.026138 -0.111724 13.167900 40.985400 -0.000006 -0.000013 -0.896852 13.353700 -68.921500 11.754300 -0.000000 0.000003 -0.000539 0.176259 -9.427320 -2.192510 6.469440 -0.000001 175.680000 6.844140 -177.777000 -39.081100 -0.002282 -0.040193 0.005830 -0.012978 10.870500 -40.985400 0.000008 0.000006 -8.768510 5.225110 -67.705100 -11.754300 -0.000006 -0.000006 -0.010314 0.273637 -5.455610
0.000000 0.000000 0.000000 0.000000 0.000000 -0.000000 -0.258999 93.085900 1.573830 89.289300 1.590920 -0.663441 15.735700 0.000005 -0.000001 126.942000 87.933900 -126.128000 8.984550 -0.406207 -0.000000 -4.481970 2.394420 1.723330 16.377300 -0.000001 -0.000001 -0.876527 0.297392 -1.196670 6.456720 -0.000001 -0.000000 2.934500 -2.093440 2.338890 12.994200 -0.242716 4.980390 -93.330400 9.913030 -71.323600 5.348090 -0.000007 -0.000001 -61.037300 15.452600 -8.265110 24.328600 0.000019 0.000005 9.676410 36.723100 -15.916200 22.291600 -0.000001 0.000005 -21.460000 5.335580 -0.953182 12.994500 -0.242716 -4.980390 88.274500 6.327330 -74.712000 -5.348130 -0.000001 -0.000004 -71.237600 27.468700 -2.273890 -24.328900 0.000322 -0.000009 1.552170 5.480770 -15.849000 -22.291500 -0.000108 -0.000004 2.495490 5.279700 0.634245 -2.192480 -6.469440 -0.000000 -174.660000 -5.133230 0.094934 39.081100 -0.000007 -0.000012 0.027805 -0.127522 12.300500 40.985400 -0.000006 -0.000013 -0.945765 13.753400 -68.633500 11.754300 -0.000000 0.000003 -0.000566 0.176657 -9.411170 -2.192510 6.469440 -0.000001 175.495000 7.106060 -178.067000 -39.081100 -0.002282 -0.040193 0.005625 -0.012580 10.301700 -40.985400 0.000008 0.000006 -9.279150 5.317280 -67.292000 -11.754300 -0.000006 -0.000006 -0.010342 0.273843 -5.447180
